<svg width="184" height="21" viewBox="0 0 184 21" fill="none" xmlns="http://www.w3.org/2000/svg">
<path d="M16.5763 17.6199L12.9282 17.5559L20.9922 4.81994H29.4722L18.3042 20.4999H11.0722L0.416248 4.81994H8.86425L16.5763 17.6199ZM97.7263 17.6199L94.0783 17.5559L102.142 4.81994H110.622L99.4543 20.4999H92.2223L81.5663 4.81994H90.0143L97.7263 17.6199ZM129.372 14.8679H136.924C136.732 16.1053 136.113 17.1826 135.068 18.0999C134.044 19.0173 132.54 19.7319 130.556 20.2439C128.593 20.7346 126.087 20.9799 123.036 20.9799C119.815 20.9799 117.031 20.7239 114.684 20.2119C112.359 19.6999 110.567 18.8359 109.308 17.6199C108.049 16.4039 107.42 14.7613 107.42 12.6919C107.42 10.6439 108.028 9.01194 109.244 7.79594C110.481 6.55861 112.263 5.67327 114.588 5.13994C116.913 4.60661 119.729 4.33994 123.036 4.33994C126.279 4.33994 128.935 4.62794 131.004 5.20394C133.073 5.77994 134.599 6.7186 135.58 8.01994C136.561 9.29994 137.031 11.0386 136.988 13.2359H115.228C115.335 13.7906 115.633 14.3026 116.124 14.7719C116.636 15.2413 117.415 15.6253 118.46 15.9239C119.527 16.2013 120.945 16.3399 122.716 16.3399C124.551 16.3399 126.055 16.2119 127.228 15.9559C128.423 15.6999 129.137 15.3373 129.372 14.8679ZM122.716 8.97994C120.455 8.97994 118.727 9.22527 117.532 9.71594C116.359 10.2066 115.665 10.6973 115.452 11.1879H129.532C129.383 10.6333 128.785 10.1319 127.74 9.68394C126.695 9.21461 125.02 8.97994 122.716 8.97994ZM136.353 4.81994H144.033V20.4999H136.353V4.81994ZM155.553 4.33994C156.811 4.33994 158.027 4.47861 159.201 4.75594C160.374 5.01194 161.419 5.45994 162.337 6.09994C163.275 6.73994 164.022 7.6146 164.577 8.72394C165.131 9.83327 165.409 11.2306 165.409 12.9159V20.4999H157.729V13.8759C157.729 12.2759 157.313 11.1453 156.481 10.4839C155.649 9.80127 154.145 9.45994 151.969 9.45994C150.817 9.45994 149.697 9.58794 148.609 9.84394C147.542 10.0999 146.582 10.4093 145.729 10.7719C144.875 11.1133 144.203 11.4546 143.713 11.7959L143.649 10.5799C143.734 10.1959 144.022 9.66261 144.513 8.97994C145.025 8.27594 145.761 7.57194 146.721 6.86794C147.681 6.16394 148.886 5.5666 150.337 5.07594C151.809 4.58527 153.547 4.33994 155.553 4.33994ZM164.29 4.81994H183.106V9.61994H164.29V4.81994ZM169.858 0.0199375H177.538V20.4999H169.858V0.0199375Z" fill="#23208F"/>
<path d="M48.222 14.8679H55.774C55.582 16.1053 54.9633 17.1826 53.918 18.0999C52.894 19.0173 51.39 19.7319 49.406 20.2439C47.4433 20.7346 44.9367 20.9799 41.886 20.9799C38.6647 20.9799 35.8807 20.7239 33.534 20.2119C31.2087 19.6999 29.4167 18.8359 28.158 17.6199C26.8993 16.4039 26.27 14.7613 26.27 12.6919C26.27 10.6439 26.878 9.01194 28.094 7.79594C29.3313 6.55861 31.1127 5.67327 33.438 5.13994C35.7633 4.60661 38.5793 4.33994 41.886 4.33994C45.1287 4.33994 47.7847 4.62794 49.854 5.20394C51.9233 5.77994 53.4487 6.7186 54.43 8.01994C55.4113 9.29994 55.8807 11.0386 55.838 13.2359H34.078C34.1847 13.7906 34.4833 14.3026 34.974 14.7719C35.486 15.2413 36.2647 15.6253 37.31 15.9239C38.3767 16.2013 39.7953 16.3399 41.566 16.3399C43.4007 16.3399 44.9047 16.2119 46.078 15.9559C47.2727 15.6999 47.9873 15.3373 48.222 14.8679ZM41.566 8.97994C39.3047 8.97994 37.5767 9.22527 36.382 9.71594C35.2087 10.2066 34.5153 10.6973 34.302 11.1879H48.382C48.2327 10.6333 47.6353 10.1319 46.59 9.68394C45.5447 9.21461 43.87 8.97994 41.566 8.97994ZM76.8345 14.8679H84.3865C84.1945 16.1053 83.5758 17.1826 82.5305 18.0999C81.5065 19.0173 80.0025 19.7319 78.0185 20.2439C76.0558 20.7346 73.5492 20.9799 70.4985 20.9799C67.2772 20.9799 64.4932 20.7239 62.1465 20.2119C59.8212 19.6999 58.0292 18.8359 56.7705 17.6199C55.5118 16.4039 54.8825 14.7613 54.8825 12.6919C54.8825 10.6439 55.4905 9.01194 56.7065 7.79594C57.9438 6.55861 59.7252 5.67327 62.0505 5.13994C64.3758 4.60661 67.1918 4.33994 70.4985 4.33994C73.7412 4.33994 76.3972 4.62794 78.4665 5.20394C80.5358 5.77994 82.0612 6.7186 83.0425 8.01994C84.0238 9.29994 84.4932 11.0386 84.4505 13.2359H62.6905C62.7972 13.7906 63.0958 14.3026 63.5865 14.7719C64.0985 15.2413 64.8772 15.6253 65.9225 15.9239C66.9892 16.2013 68.4078 16.3399 70.1785 16.3399C72.0132 16.3399 73.5172 16.2119 74.6905 15.9559C75.8852 15.6999 76.5998 15.3373 76.8345 14.8679ZM70.1785 8.97994C67.9172 8.97994 66.1892 9.22527 64.9945 9.71594C63.8212 10.2066 63.1278 10.6973 62.9145 11.1879H76.9945C76.8452 10.6333 76.2478 10.1319 75.2025 9.68394C74.1572 9.21461 72.4825 8.97994 70.1785 8.97994Z" fill="#3B32FF"/>
</svg>
